<svg xmlns="http://www.w3.org/2000/svg" xmlns:xlink="http://www.w3.org/1999/xlink" width="400" height="400" viewBox="0 0 400 400">
<rect data-name="background" width="100%" height="100%" fill="#60d1aa"/><g data-name="watermark" class="watermark-logodesign" stroke="#ffffff" transform="translate(40, 280) scale(1.5) rotate(-45)" style="opacity:0.040000010281801224;"><path fill="#000000" d="M19.52,53.48c-10.32,0-17.72-7.64-17.72-17.32c0-10,8.2-17.76,18.32-17.76c10.36,0,17.76,7.48,17.76,17.56c0,6.24-3.56,9.84-7.84,9.84c-2.96,0-4.44-1.56-5.04-3.72c-1.48,2-3.64,3.08-6.16,3.08c-4.84,0-8.52-3.8-8.52-8.96c0-5.2,3.64-9,8.56-9c2.36,0,4.52,0.96,6,3l0-2.52l3.44,0l0,12.48c0,1.68,0.6,2.96,2.24,2.96c2.12,0,4.2-2.52,4.2-7.12c0-8.28-5.76-14.68-14.6-14.68c-8.48,0-15.24,6.44-15.24,14.84c0,8.16,6.24,14.4,14.68,14.4c2.88,0,6.04-0.68,8.2-2.4l0.8,2.88c-2.36,1.68-5.68,2.44-9.08,2.44z M19.36,41.92c3.24,0,5.64-2.4,5.64-5.76c0-3.32-2.36-5.68-5.64-5.68c-3.2,0-5.48,2.36-5.48,5.68s2.32,5.76,5.48,5.76z M46.84,42.4l14.72,0l0,4l-19.08,0l0-28l4.36,0l0,24z M74.8,46.92c-6.16,0-10.68-4.56-10.68-10.6c0-6,4.52-10.56,10.68-10.56s10.68,4.56,10.68,10.56c0,6.04-4.52,10.6-10.68,10.6z M74.8,43.12c3.84,0,6.6-2.92,6.6-6.76c0-3.88-2.76-6.8-6.6-6.8s-6.6,2.92-6.6,6.8c0,3.84,2.76,6.76,6.6,6.76z M105.68,26.28l4.2,0l0,19.4c0,5.6-4.08,9.64-10.2,9.64c-4.84,0-7.92-2.24-9.6-5.24l3.68-1.36c1.2,2,3.12,3.08,6,3.08c3.84,0,5.88-2.64,5.92-6.08l0-2.96c-1.56,2.12-4,3.4-7.08,3.4c-5.84,0-10.04-4.44-10.04-10.2c0-5.96,4.2-10.2,10.04-10.2c3.08,0,5.52,1.28,7.08,3.36l0-2.84z M99.24,42.4c3.72,0,6.56-2.72,6.56-6.44s-2.84-6.4-6.56-6.4c-3.88,0-6.56,2.68-6.56,6.4s2.68,6.44,6.56,6.44z M124.92,46.92c-6.16,0-10.68-4.56-10.68-10.6c0-6,4.52-10.56,10.68-10.56s10.68,4.56,10.68,10.56c0,6.04-4.52,10.6-10.68,10.6z M124.92,43.12c3.84,0,6.6-2.92,6.6-6.76c0-3.88-2.76-6.8-6.6-6.8s-6.6,2.92-6.6,6.8c0,3.84,2.76,6.76,6.6,6.76z M141.88,46.68c-1.56,0-2.76-1.2-2.76-2.72c0-1.48,1.2-2.68,2.76-2.68s2.76,1.2,2.76,2.68c0,1.52-1.2,2.72-2.76,2.72z M158.2,46.92c-5.68,0-10-4.52-10-10.6c0-6.04,4.32-10.56,10-10.56c3.24,0,5.72,1.4,7.24,3.56l0-3.04l4.16,0l0,20.12l-4.16,0l0-3.04c-1.52,2.16-4,3.56-7.24,3.56z M158.88,43.16c3.68,0,6.64-2.88,6.64-6.84c0-3.92-2.96-6.8-6.64-6.8c-3.84,0-6.56,2.84-6.56,6.8s2.72,6.84,6.56,6.84z M186.6,25.76c5.68,0,10.04,4.52,10.04,10.56c0,6.08-4.36,10.6-10.04,10.6c-3.2,0-5.68-1.4-7.2-3.56l0,11.44l-4.2,0l0-28.52l4.2,0l0,3.04c1.52-2.16,4-3.56,7.2-3.56z M185.92,43.16c3.84,0,6.56-2.88,6.56-6.84s-2.72-6.8-6.56-6.8c-3.68,0-6.64,2.88-6.64,6.8c0,3.96,2.96,6.84,6.64,6.84z M212.36,25.76c5.68,0,10.04,4.52,10.04,10.56c0,6.08-4.36,10.6-10.04,10.6c-3.2,0-5.68-1.4-7.2-3.56l0,11.44l-4.2,0l0-28.52l4.2,0l0,3.04c1.52-2.16,4-3.56,7.2-3.56z M211.68,43.16c3.84,0,6.56-2.88,6.56-6.84s-2.72-6.8-6.56-6.8c-3.68,0-6.64,2.88-6.64,6.8c0,3.96,2.96,6.84,6.64,6.84z"/></g><g data-name="icon" fill="#3b4047" data="id:7279623" transform="translate(9.515411852025075,125.01546198682868) scale(1.5005939636280219)">
  
 <path d="m96.352 13.48c-0.12891-0.62891-0.46484-1.168-0.89062-1.6289-0.55469-0.62891-1.168-1.2031-1.668-1.8711-0.98047-1.2422-2.7031-4.0547-3.9062-4.8164-0.48047-0.29687-1.0195-0.18359-1.5-0.40625-1.0547-0.48047-1.6484-0.85156-2.8516-0.90625-0.81641-0.035156-1.5352 0.074219-2.2969 0.37109-0.85156-0.29688-1.668-0.46484-2.5742-0.40625-1.332 0.10938-2.5547 0.64844-3.7031 1.3164-0.75781-0.035156-1.3164-0.035156-2.0195 0.24219-0.74219 0.31641-2.7773 2.7578-3.8164 3.7969-0.85156 0.85156-1.8516 1.5742-2.6289 2.4648-0.20312 0.24219-0.39062 0.55469-0.5 0.87109-0.39062 1.0195-0.25781 2.168 0.18359 3.1484 0.31641 0.70312 0.81641 1.2578 1.2031 1.9062-0.77734 2.4062-2.9805 4.668-5.2031 5.7969-1.3516 0.68359-2.9062 0.72266-4.332 1.2422-2.1836 0.81641-3.9805 2.4453-6.3906 2.6289-2.7227 0.18359-5.5352-0.48047-8.2031-0.90625-8.6094-1.3516-16.852-2.3164-23.965 2.4258-0.89062 0.59375-1.668 1.2969-2.4805 2-0.46484 0.40625-1.1094 0.59375-1.6289 0.94531-1.7578 1.2422-2.9805 3.332-3.6484 5.3516-1.3516 4.0938-1.0195 10.52-5.4258 12.797-0.5 0.25781-1.0742 0.48047-1.6289 0.57422-0.74219 0.10938-2.5-0.20312-2.832 0.72266-0.074219 0.16797-0.019531 0.35156 0.074219 0.5 0.31641 0.53516 1.0352 0.90625 1.6289 1.0352 1.2422 0.31641 2.9805 0.22266 4.0938-0.44531 2.168-1.3164 3.7227-3.332 4.8164-5.5938 0.22266 2.2031 0.79688 4.3711 1.0195 6.5938 0.27734 3.0195 0.10938 6.4062-0.74219 9.332-0.33203 1.168-0.79688 2.2773-1.2578 3.3906-1.6484 4-2.6484 4.5547-3.5 5.5938-2.1289 2.6289 0.64844 6.2578-0.31641 11.742-0.46484 2.6289-1.9062 7.4062 0.87109 9.2773 0.14844 0.09375 0.29688 0.16797 0.44531 0.24219 0.77734 0.33203 2.5938 0.40625 3.3516 0.31641 1.2578-0.14844 0.94531-0.5 1.6289-0.75781 0.42578-0.14844 0.92578-0.33203 1.1289-0.75781 0.27734-0.62891-0.035157-1.668-0.29688-2.2773-0.75781-1.8164-1.5742-1.0547-2.2969-2.168-1.2227-1.9258-1.168-7.168-0.75781-9.4453 0.16797-1 0.48047-1.9453 0.87109-2.8906 1.8711-4.6289 6.168-8.8711 8.0195-11.277-0.29688 2.1836-1.2773 4.1094-2.5938 5.8711-0.72266 0.96484-1.6836 1.7773-1.332 3.5 0.22266 1.0938 0.79688 2.4258 1.6836 6.4258 0.57422 2.6484 0.68359 6.332 1.7773 7.7773 0.51953 0.70312 1.2227 0.92578 2.0547 1.0195 2.2422 0.27734 2.3906-0.035156 3.0742-0.18359 0.40625-0.09375 0.77734-0.054688 1.1289-0.33203 0.20312-0.16797 0.33203-0.40625 0.35156-0.66797 0.09375-0.87109-0.33203-2-0.90625-2.6289-0.74219-0.83203-1.5195-0.5-2.168-1.0742-0.44531-0.39062-0.72266-1.0547-0.94531-1.5938-0.81641-2.0742-1.1289-4.4258-1.0195-6.6484 0.16797-3.4805 1.8164-5.3711 4-8.332 1.0938-1.5 2.1836-2.9805 3.3516-4.4062 2.9805-3.7773 4.7578-5.7422 5.5-10.742 0.29688-1.9258 0.44531-3.7227 1.332-5.5 3.5742 1.0938 6.2422 3.5742 9.0742 5.8711 3.4805 2.832 7.4453 5.1836 11.926 5.9648-0.22266 0.66797-0.37109 1-0.33203 1.332 0.035157 0.55469 0.31641 1.1484 0.44531 1.7031 0.53516 2.168 0.77734 6.3516 1.1094 9.3906 0.25781 2.5195 0.64844 5.0742 0.74219 7.6094 0.035156 0.79688 0 1.5938-0.12891 2.3711-0.24219 1.5-0.89062 3.0742-0.20312 4.5547 0.31641 0.66797 0.72266 1.2227 0.87109 1.9648 0.46484 2.6836-0.53516 5.0195 0.75781 7.7227 0.27734 0.59375 0.62891 1.0742 1.2578 1.2773 0.35156 0.10938 0.92578 0.22266 1.2969 0.12891 0.14844-0.035156 0.33203-0.14844 0.46484-0.16797 0.054687-0.019531 0.27734 0.09375 0.35156 0.10938 0.74219 0.22266 1.5938 0.44531 2.3164 0.054687 0.24219-0.12891 0.40625-0.31641 0.57422-0.51953 0.59375-0.09375 1.2227-0.20312 1.5938-0.72266 0.29688-0.39063 0.25781-0.87109 0.18359-1.3164-0.14844-0.81641-0.62891-1.6836-1.3164-2.1484-0.92578-0.62891-1.8711-0.42578-2.5547-3.668-0.39062-1.8516 0.054688-2.6094 0-4.3164-0.054687-1.8516-0.39062-4.6289-0.35156-10.891 0.019531-2.7227 0.14844-9.6836 0.98047-12.297 0.35156 1.5938 0.37109 3.2773 0.40625 4.9062 0.054687 1.5352 0.074218 3.0938 0.074218 4.6289 0 2.0547 0.074219 4.168-0.18359 6.2031-0.33203 2.6094-1.0195 3.3906-1.0195 4.6836 0.019531 1.6289 1.0195 2.1484 1.3516 3.4453 0.60938 2.3164-0.24219 6.2969 2.0195 7.7578 0.64844 0.42578 1.9062 0.75781 2.6836 0.60938 0.10938-0.019532 0.22266-0.074219 0.33203-0.10938 0.33203-0.14844 0.70312-0.14844 1.0547-0.18359 0.79687-0.10938 2.0547-0.37109 2.3516-1.2422 0.40625-1.168-0.64844-3.0742-1.6484-3.3906-0.77734-0.22266-1.3906 0.019532-1.8711-0.85156-0.48047-0.85156-0.87109-3.2422-0.75781-4.2227 0.074219-0.74219 0.31641-1.4648 0.33203-2.2227 0.019531-0.64844-0.074219-1.2969-0.09375-1.9258-0.035157-0.81641-0.019532-1.6484 0.019531-2.4648 0.20312-3.8711 0.94531-7.9453 1.5547-11.777 0.31641-2 0.57422-4.3516 1.1289-6.2578 0.53516-1.8516 1.9805-3.1094 3.0195-4.668 1.2578-1.8516 2.2031-3.9805 2.8164-6.1289 0.74219-2.5938 0.77734-5.0352 0.51953-7.7031-0.12891-1.3906-0.31641-2.7422-0.18359-4.1289 0.24219-2.832 1.0938-4.6094 2.2227-7.168 0.20312-0.48047 0.90625-2.5547 1.0938-2.7422 0.16797 0.035156 0.22266 0.10938 0.31641 0.24219 0.16797 0.24219 0.33203 0.5 0.51953 0.72266 0.33203 0.39062 1.1289 0.64844 1.6094 0.72266 1.5938 0.24219 2.8711-0.24219 3.6289-1.7227 0.18359 0.054687 0.37109 0.12891 0.55469 0.18359 0.81641-0.35156 0.96484-0.75781 1.1094-1.6289 0.39062 0.48047 0.85156 0.94531 1.5 1 0.22266 0.019531 0.40625-0.035156 0.57422-0.16797 0.18359-0.16797 0.20312-0.35156 0.20312-0.59375 0.054687-1 0.019531-1.8906 0.29688-2.8906 0.58203-2.1406 2.4883-5.3086 2.043-7.4766zm-82.52 32.336c-0.90625 2.2227-2.9648 5.0742-5.2227 6-1.7773 0.72266-3.7422 0.10938-4.1289-0.20312-0.09375-0.074219-0.09375-0.10938-0.09375-0.20312 0.29688-0.33203 2-0.22266 2.5195-0.33203 1.6484-0.35156 3.0352-1.4648 3.9805-2.8164 3.4648-4.9258 1.2969-11.074 6.2031-15.5l0.035156 0.054687c-2.1094 2.7031-3.0742 6.7227-3.1484 10.094-0.011718 0.92188 0.20703 2.0547-0.14453 2.9062zm20.41 10.461c-1.0195 2.0352-3.0352 4.4062-4.4805 6.2031-1.1094 1.3711-2.168 2.8516-3.2031 4.2773-0.96484 1.3164-1.9453 2.6289-2.7031 4.0742-1.5352 2.9062-1.2773 7.2031-0.31641 10.277 0.33203 1.0547 0.94531 2.5547 2.0195 3.0352 0.74219 0.35156 1.6289 0.12891 2.1094 1.668 0.09375 0.31641 0.29688 0.94531 0.09375 1.2227-0.16797 0.24219-0.66797 0.22266-0.92578 0.24219-0.14844-0.96484-0.35156-2.1094-1.2227-2.5547-0.20312-0.054687-0.62891-0.10938-0.77734 0.035156l0.019531 0.074219c0.74219 0.48047 1.2227 1.0938 1.2773 2.7031-0.98047 0.019532-2.7422 0.09375-3.4648-0.62891-0.90625-0.90625-1.0547-3.168-1.2422-4.4805-0.48047-3.4805-0.92578-4.832-1.7227-7.7031-0.35156-1.2422-0.72266-2.168-0.55469-2.9648 0.16797-0.85156 0.81641-1.3516 1.332-2 1.1484-1.4648 2.1484-3.4648 2.4648-5.2773 0.10938-0.59375 0.10938-1.168 0.10938-1.7773 0.59375-0.90625 2.6289-3.3906 3.7227-7 0.20312-0.70312 0.39062-1.3906 0.55469-2.1094 0.22266-1.0195 0.77734-4.7227 1.2422-5.3164 0.24219-0.31641 0.59375-0.57422 0.92578-0.79688 1.3164-0.98047 2.7969-1.6836 4.4258-1.8711 1-0.074219 2.0195-0.074219 3 0.14844-1.4609 3.4102-1.0195 7.2227-2.6836 10.52zm46.48-25.242c-0.39062 1.0938-0.57422 2.2578-0.92578 3.3711-0.37109 1.1484-0.90625 2.2422-1.2578 3.4062-0.44531 1.4805-0.62891 2.9805-1.4258 4.332 1.2578-0.87109 1.7578-3.1484 2.2031-4.5547 0.18359-0.59375 0.42578-1.168 0.62891-1.7578 0.019532 1.6289 0.25781 3.2578 0.33203 4.8906 0.18359 3.9805-0.94531 7.8711-3.0195 11.258-0.87109 1.4258-2.7031 3.2773-3.2422 4.668-0.57422 1.4453-0.90625 3.8164-1.5 7.7422-0.60938 3.9805-1.332 7.9648-1.5352 11.98-0.074219 1.2773 0.16797 2.5195 0.10938 3.7773-0.035156 0.94531-0.39062 1.8516-0.31641 2.7969 0.10937 1.4648 0.44531 4.4062 2.0938 4.8906 0.55469 0.14844 1 0.019531 1.4805 0.44531 0.62891 0.57422 0.83203 1.4453 0.89062 2.2578-0.39062-1.2227-0.89062-1.9258-2.1836-2.5742 0.5 0.87109 1.2227 1.5 1.4805 2.5 0.035156 0.14844 0.074219 0.37109-0.035156 0.5-0.25781 0.33203-1.3906 0.35156-1.7969 0.37109 0-0.18359 0.019531-0.37109-0.019531-0.53516-0.14844-1.3516-1.2773-2.1094-2.2422-2.9062 0.18359 1.0195 0.98047 1.5352 1.4062 2.4062 0.12891 0.25781 0.33203 0.70312 0.22266 0.98047-0.054687 0.10938-0.12891 0.18359-0.24219 0.22266-0.5 0.16797-1.4062-0.074218-1.8516-0.31641-0.59375-0.33203-1.0195-0.87109-1.2422-1.5-0.44531-1.2578-0.22266-4.0938-0.72266-6.2227-0.25781-1.1484-1.2773-1.6289-1.2969-2.9805-0.019532-1.1836 0.68359-2.0547 0.94531-4.1094 0.39062-3.2031 0.29688-6.5352 0.22266-9.7578-0.035156-1.8711-0.035156-3.7578-0.29687-5.6094-0.09375-0.64844-0.25781-1.2578-0.44531-1.8906 0.09375-0.27734 0.24219-0.53516 0.37109-0.79688 0.70312-0.18359 1.4062-0.37109 2.0742-0.64844 0.92578-0.37109 1.832-0.85156 2.6484-1.4062 1.7969-1.2578 3.5352-3.3164 4.3906-5.332 0.81641-1.9453 1.0195-4.3906 0.20312-6.3711 0.074219 2.8906 0.054687 4.7227-1.5 7.3164-1.6094 2.668-4.3906 4.8516-7.4258 5.6094 0.85156-1.5 1.2773-1.6289 2.6289-4.4648 1.168-2.4453 1.3711-5.2773 3.6094-7.1094 0.39062-0.33203 0.87109-0.51953 1.2969-0.79687-0.29688-0.054688-0.59375 0.019531-0.87109 0.10937-2.6094 0.98047-3.4062 4.0547-4.2969 6.3906-1.3516 3.4805-2.6289 4.4805-3.7031 6.8164-1.5742 3.4258-1.5195 10.02-1.5352 13.852-0.035156 7.5938 0.12891 6.1094 0.33203 10.965 0.074219 1.9258-0.64844 2.2969 0.20312 5.168 0.24219 0.81641 0.68359 1.9805 1.332 2.5742 0.53516 0.5 1.7031 0.59375 2.2969 2.2227 0.10938 0.31641 0.22266 0.72266 0.074219 1.0352-0.18359 0.33203-0.66797 0.40625-1 0.5-0.035156-0.89062-0.24219-1.7031-0.79688-2.4062-0.48047-0.62891-1.0352-0.87109-1.8164-0.96484 0.96484 0.77734 1.7578 1.832 1.9258 3.0938 0.09375 0.62891-0.14844 0.94531-0.83203 1-0.57422 0.035156-1.0742-0.10938-1.5195-0.48047 0.074219-0.68359-0.019531-1.4258-0.31641-2.0742-0.25781-0.60938-0.62891-0.92578-1.2227-1.168 0.57422 1.168 1 2.2422 0.72266 3.5547-1.2031-0.054688-1.5938-0.33203-2.0195-1.3516-0.98047-2.3906-0.09375-4.7422-0.55469-7.1484-0.22266-1.1836-1.0547-2.1484-1.1484-3.2031-0.09375-1.0195 0.27734-1.9805 0.46484-2.9648 0.14844-0.72266 0.18359-1.4258 0.16797-2.1484-0.035157-2.4453-0.40625-4.9062-0.66797-7.3516-0.62891-5.832-0.57422-8.3906-1.6836-11.926 0.59375-1.6836 1.668-3.9805 1.3516-5.7578-0.37109-2.0352-1.8164-3.5352-2.1484-6.0547-0.46484-3.4453 0.64844-6.3516 0.89062-7.7773-0.59375 0.81641-0.92578 1.7422-1.2031 2.7031-0.81641 2.8516-0.62891 5.5352 0.46484 8.2773 0.46484 1.1484 1.2578 2.3711 1.332 3.6094 0.074219 1.0195-0.39062 2.0547-0.72266 3-0.81641-0.10938-1.6484-0.33203-2.4453-0.57422-3.7422-1.1094-6.7031-3.168-9.7227-5.5938-0.94531-0.75781-2.4805-2.2422-4.5352-3.5742-0.46484-0.29688-1.0352-0.53516-1.4453-0.90625-0.40625-0.35156-0.68359-0.85156-1.0195-1.2773-2.9648-3.9062-8.4453-3.5547-7.5938-11.816-0.16797 0.31641-0.31641 0.60938-0.40625 0.94531-0.25781 0.96484-0.25781 2.0352-0.074219 3.0195 0.90625 5.0195 5.9062 5.0742 7.8711 8.6094-0.87109-0.44531-2-0.79688-2.9453-0.96484-3.2578-0.59375-5.1836 0.16797-7.7969 1.9805 0.60938-1.7031 1.6094-2.5938 2.4258-4.0352-0.35156 0.14844-0.66797 0.31641-1.1836 0.83203-3.4648 3.4648-2.4648 8.4805-4.8164 13.832-2.9453 6.7227-9.6836 10.594-12.035 18.242-0.20312 0.64844-0.35156 1.3164-0.46484 1.9805-0.35156 2.3906-0.39062 7.1484 0.72266 9.2227 0.31641 0.57422 0.83203 1.2773 1.5 1.4648l0.37109 0.10938c0.35156 0.33203 0.57422 0.81641 0.72266 1.2773 0.14844 0.40625 0.31641 0.96484 0.09375 1.3516-0.12891 0.24219-0.33203 0.25781-0.57422 0.33203-0.054688-0.66797-0.14844-1.2969-0.5-1.8711-0.27734-0.46484-0.75781-0.96484-1.3164-1.0938-0.20312-0.054687-0.55469-0.10938-0.74219 0.019531 0 0.035156-0.019532 0.054688 0.019531 0.09375 0.035156 0.074219 0.75781 0.55469 0.89062 0.66797 0.60938 0.53516 0.96484 1.2773 0.98047 2.0938 0.019531 0.25781-0.035157 0.5-0.22266 0.70312-0.44531 0.44531-1.3164 0.31641-1.8906 0.29688 0.09375-0.94531 0.054687-2.0195-0.51953-2.8164-0.29688-0.42578-0.70312-0.62891-1.2031-0.70312-0.16797-0.035156-0.25781-0.035156-0.40625 0.054687 0.42578 0.5 0.75781 0.5 1.1484 1.2031 0.24219 0.46484 0.66797 1.9648 0.12891 2.1094-0.27734 0.074219-0.85156-0.12891-1.0742-0.25781-0.70312-0.39062-1.0938-1.1289-1.2969-1.8711-0.81641-2.9648 0.79688-5.6289 0.75781-9.6289-0.035156-3.1836-0.89062-5.8164-0.64844-7.1836 0.24219-1.4805 1.1094-1.7227 2.3164-3.4453 0.62891-0.89062 1.1094-1.9258 1.5742-2.9258 1.1289-2.4805 1.9453-4.9258 2.2969-7.6484 0.70312-5.7969-0.44531-9.3711-0.89062-12.574-0.57422-4.1836-0.20312-8.6289 1.9258-12.352 1-1.7422 2.2227-3.1094 3.7969-4.3516 5.8711-4.7227 13.816-4.6094 20.926-3.5938l5.9453 0.90625c1.9062 0.29688 3.8516 0.64844 5.7969 0.51953 2.7422-0.16797 4.0938-1.6094 6.4258-2.5352 1.1484-0.44531 2.332-0.59375 3.5-0.92578 2.0352-0.57422 4.0352-2.2969 5.2773-3.9258 0.53516-0.70312 1-1.5 1.4258-2.2773 0.87109 0.85156 2.2031 2.4648 2.5 3.6289 0.14844 0.60938 0.18359 1.2773 0.46484 1.832 0.14844 0.29688 0.37109 0.59375 0.70312 0.68359 0.31641 0.09375 0.66797 0.035156 0.94531-0.12891 1.168-0.64844 1.8711-2.8906 2.2422-4.0938 0.55469 0.31641 1.0547 0.77734 1.5938 1.1289 0.81641 0.53516 1.7578 1.0352 2.5195 1.6484 0.31641 0.25781 0.59375 0.59375 0.87109 0.89062 0.42578 0.42578 0.92578 0.70313 1.4258 1-0.60547 2.1289-1.8086 4.0195-2.5508 6.0898zm2.2422-7.0352c-2.3516-1.4258-1.5938-3.6836-3.4062-5.3164 0.55469 1.0938 0.79688 2.1836 1.0938 3.3711-1.2227-0.83203-2.4648-1.5938-3.6484-2.4648 0.37109-1.5195 0.37109-3.5195 0.09375-5.1094-0.33203-2-0.98047-3.2773-0.20312-5.3164 0.40625-1.0742 1.0195-2.0742 1.5938-3.0547-0.44531 0.054687-0.75781 0.16797-1.0742 0.48047-0.5 0.5-0.77734 1.2578-0.98047 1.9258-0.35156 1.168-0.55469 2.3906-0.44531 3.6094 0.12891 1.3164 0.62891 2.3711 0.64844 4.8516-0.019531 1.832-0.74219 5.2773-2.0938 6.5547-0.16797 0.14844-0.37109 0.33203-0.60938 0.31641-0.53516-0.074218-0.55469-1.168-0.85156-2.168-0.81641-2.8516-4.9648-5.2227-4.6289-8.1836 0.18359-1.6289 1.7422-2.3906 2.9805-3.6484 3.1484-3.1484 3.2773-4.332 5.6289-4 1.3516-0.75781 2.4805-1.2773 4.0547-1.3711 0.74219-0.035156 1.4453 0.16797 2.1094 0.46484 0.64844-0.29688 1.2578-0.46484 1.9453-0.46484 1.2031 0 2.2969 0.35156 3.1484 1.2031 1.7227 1.7578 2.832 4.0938 2.7773 6.5547-0.27734-0.51953-0.59375-1.0547-1.2031-1.168-0.37109-0.074218-0.75781 0.019532-1.0742 0.22266-0.35156 0.24219-0.5 0.72266-0.57422 1.1289-0.25781 1.5938 0.92578 4.0352 1.8164 5.2969 0.39062 0.53516 0.87109 1.0195 1.2422 1.5742l0.035156 0.054688c-0.35156-0.35156-0.72266-0.57422-1.1836-0.74219-0.89062-0.33203-1.8516-0.42578-2.7227-0.019531-1.0742 0.5-1.2578 1.2969-0.94531 1.9258 0.39062 0.75781 1.2969 1.4805 2.0938 1.7422-0.074219 0.33203-0.14844 0.62891-0.25781 0.94531-0.90625 0.70313-2.2227 1.1836-3.3711 1.2422-0.69531 0.097656-1.3594-0.046875-1.9883-0.4375zm7.4062-7-0.035156 0.035156c-0.074219-0.054687-0.074219-0.035156-0.10938-0.09375-0.66797-1.0547-1.6094-3.2031-1.3164-4.4648 0.09375-0.39062 0.24219-0.57422 0.59375-0.77734 0.14844-0.019531 0.29688-0.019531 0.42578 0.019531 0.37109 0.074219 0.66797 0.25781 0.87109 0.59375 0.625 0.96484-0.17188 3.5781-0.42969 4.6875zm0.3125 3.5938c-0.33203 0.53516-0.89062 1.0195-1.5195 1.1836-0.40625-0.019532-0.72266-0.10938-1.0742-0.35156-0.42578-0.29688-1.0352-0.83203-1.1094-1.3516-0.035157-0.22266 0.035156-0.42578 0.16797-0.59375 0.37109-0.44531 1.0547-0.53516 1.5938-0.59375 0.70312 0 1.9453 0.25781 2.1289 0.96484 0.054687 0.25781-0.039063 0.51953-0.1875 0.74219zm-4.7188 5.3711c-0.48047-0.18359-0.81641-0.40625-1.1289-0.85156 1.3906-0.10938 2.4453-0.5 3.6836-1.1484 0.27734 0.09375 0.66797 0.51953 0.89062 0.72266-0.61328 1.1836-1.5039 1.7383-3.4453 1.2773zm4.9062-1.7617c-0.074219 0.12891-0.16797 0.18359-0.31641 0.20312-0.37109 0.035156-0.72266-0.31641-1.0195-0.51953-0.20312-0.14844-0.39062-0.33203-0.57422-0.5 0.074218-0.33203 0.12891-0.64844 0.20312-0.98047 1.0195-0.29688 1.6289-1.0352 2.2031-1.8906 0.35547 0.33594-0.18359 3.1133-0.49609 3.6875zm3.0938-4.4805c-0.16797 0.44531-0.29688 0.89062-0.40625 1.332-0.10938 0.44531-0.18359 0.90625-0.24219 1.3711-0.019531 0.39062 0.10938 1.1094-0.12891 1.4062-0.054688 0.019531-0.09375 0.035157-0.14844 0.019531-0.20312-0.019531-0.46484-0.25781-0.59375-0.40625-0.60937-0.66797-0.31641-1.8906-0.29687-2.7031 0.035156-1.3164-0.40625-2.0742-1.2773-3 0.27734-1.3164 0.59375-2.6484 0.77734-3.9805 0.48047-3.6836-0.51953-5.5195-2.6836-8.332 1.2227 0.27734 2.3164 2.2422 3.0195 3.2227 2.2227 3.0742 2.1484 2.5742 3.0938 3.7422 0.24219 0.29688 0.44531 0.60938 0.53516 0.98047 0.46094 1.8281-1.0391 4.625-1.6484 6.3477z"/>
 <path d="m82.297 11.223c-0.39062-0.16797-0.81641-0.14844-1.2422-0.10938-0.62891 0.18359-1.0938 0.46484-1.4062 1.0547-0.10938 0.20312-0.22266 0.44531-0.16797 0.66797 0.75781 0.60937 0.89062 1.2422 1.9453 1.4805 0.20312 0.054688 0.42578 0.09375 0.62891 0.074219 0.20312-0.019531 0.42578-0.054687 0.60937-0.14844-0.035156-0.074219-0.019531-0.054688-0.074218-0.054688-0.24219-0.054688-0.48047-0.035156-0.74219-0.074219-0.92578-0.16797-1.4062-0.62891-2.0352-1.2773 0.10938-0.51953 1.9453-1.7578 2.5938-0.70313 0.31641 0.5 0.22266 1.2227 0.18359 1.7773 0.16797 0.074219 0.33203 0.14844 0.48047 0.24219 0.29688-0.64844 0.29688-1.3516 0.035157-2.0352-0.14062-0.39453-0.40234-0.72656-0.80859-0.89453z"/>
 <path d="m71.648 24.316c-0.035157-0.25781-0.074219-1.2227-0.16797-1.3711-0.42578 2.4453 0.10938 5.1094 1.168 7.332 0.90625 1.9062 1.7227 3.1484 2.1094 5.1094 0.09375 0.40625 0.09375 1.2578 0.31641 1.5742 0.39062-2.9062-0.85156-4.8164-1.9453-7.332-0.85156-1.8711-1.2227-3.5352-1.4805-5.3125z"/>
 <path d="m67.668 30.5c-0.18359-0.62891-0.25781-1.2969-0.33203-1.9453-0.019532-0.24219 0-0.51953-0.054688-0.75781-0.51953 1.332-0.31641 2.8906 0.24219 4.168 0.44531 1.0352 1.1289 1.8906 1.832 2.7578 0.70312 0.89062 1.4805 1.7422 2.0938 2.6836 1 1.5 1.5547 3.332 1.8516 5.0938l0.054688 0.035156c0.40625-1.2031-0.42578-3.6836-0.96484-4.7773-1.2422-2.6289-3.8555-4.3516-4.7227-7.2578z"/>
 <path d="m81.945 12.852c0 0.76563-1.1484 0.76563-1.1484 0 0-0.76562 1.1484-0.76562 1.1484 0"/>
 <path d="m90.391 13.203c0 0.76562-1.1484 0.76562-1.1484 0s1.1484-0.76562 1.1484 0"/>

  </g><g data-name="business_name" fill="#3b4047" data="id:357" transform="translate(174.08260928117443,85.02627687948248) scale(3.212166905808277)"><path d="M11.16,43.76q-2.52,0-4.88-0.68t-3.84-1.64q-0.92-2.12-0.84-4.26t1.4-2.14q0.36,0,0.52,0.18t0.36,0.7q1.04,2.88,3.24,4.48t4.88,1.6q2.12,0,3.2-0.96t1.08-2.6q0-0.92-0.38-1.66t-0.86-1.2t-1.52-0.94t-1.72-0.7t-2.08-0.66q-7.88-2.48-7.88-8.2q0-3.36,2.62-5.28t6.74-1.92q2.28,0,4.58,0.56t3.66,1.44q0.92,2.12,0.84,4.26t-1.4,2.14q-0.36,0-0.52-0.18t-0.36-0.7q-0.96-2.8-3.04-4.32t-4.4-1.52q-2.08,0-3.06,1.08t-0.98,2.6q0,1.88,1.4,2.98t4.24,1.98q1.56,0.48,2.54,0.84t2.4,1.1t2.24,1.54t1.44,2.08t0.62,2.8q0,1.96-0.92,3.42t-2.46,2.24t-3.26,1.16t-3.6,0.38z M24,43.36l0-1.28q2.76-0.36,2.76-2.4l0-17.48q0-2.04-2.76-2.4l0-1.28l12.04,0q10.52,0,10.52,5.84q0,4.4-5.84,5.48q7.28,1.08,7.28,6.52q0,3.24-2.52,5.12t-6.56,1.88q-0.72,0-3.74-0.18t-5.98-0.18t-5.2,0.36z M34.72,29.08l1.84,0q2.28,0,3.3-1.24t1.02-3.2q0-4.52-4.64-4.52l-1.52,0q-1.32,0-1.92,0.5t-0.6,1.62l0,4.72q0,1.12,0.6,1.62t1.92,0.5z M33.84,41.6l2.92,0q5.56,0,5.56-5.2q0-2.96-1.9-4.36t-6.1-1.4q-2.12,0-2.12,2.12l0,7.24q0,1.6,1.64,1.6z"/></g><g data-name="slogan" fill="#3b4047" data="id:351" transform="translate(177.0378003500356,225.6866982245089) scale(0.5576589248045556)"><path d="M3.88,48l0-28.32l16.96,0l0,2.4l-14.32,0l0,10.08l13.32,0l0,2.4l-13.32,0l0,13.44l-2.64,0z M33.68,29.04c0.44,0,0.84,0.04,1.4,0.2l-0.28,2.36c-0.32-0.12-0.64-0.16-0.96-0.16c-3.88,0-6,2.64-6,6.48l0,10.08l-2.4,0l0-13.48c0-0.4-0.2-4.68-0.2-5l2.4,0c0.04,1.4,0.08,2.8,0.16,3.24c1.4-2.48,3.4-3.72,5.88-3.72z M47.44,29.04c5.64,0,9.72,4.08,9.72,9.72c0,5.52-3.96,9.72-9.72,9.72c-5.68,0-9.72-4.08-9.72-9.72c0-5.6,4-9.72,9.72-9.72z M40.12,38.76c0,4.32,2.96,7.56,7.32,7.56c4.32,0,7.32-3.2,7.32-7.56s-3-7.56-7.36-7.56c-4.24,0-7.28,3.2-7.28,7.56z M62.32,29.52l2.4,0c0.04,1.04,0.04,2.68,0.16,3.24l0.12,0c1.08-2.28,3.6-3.72,6.32-3.72c4.68,0,7.04,2.52,7.04,8.04l0,10.92l-2.4,0l0-10.8c0-4.08-1.52-6-4.64-6c-3.88,0-6.4,2.84-6.4,7.64l0,9.16l-2.4,0l0-13.48c0-0.4-0.2-4.68-0.2-5z M82.12,31.68l0-2.16l4,0l0-5.32l2.4,0l0,5.32l5.28,0l0,2.16l-5.28,0l0,12.08c0,1.56,0.92,2.56,2.56,2.56c0.92,0,1.84-0.24,2.72-0.64l0.2,2.16c-1.08,0.4-2.4,0.64-3.16,0.64c-3.12,0-4.72-1.88-4.72-4.72l0-12.08l-4,0z M106.48,37.44l0,2.16l-9.88,0l0-2.16l9.88,0z M119.6,29.04c4.88,0,8.68,3.4,8.68,8.88l0,1.44l-15.52,0c0.2,3.88,2.68,6.96,7,6.96c2.48,0,5-1.32,6.2-3.28l1.76,1.48c-1.88,2.8-4.72,3.96-8,3.96c-5.6,0-9.36-3.96-9.36-9.76c0-5.36,3.72-9.68,9.24-9.68z M125.88,37.2c-0.04-3.44-2.92-6-6.44-6c-3.64,0-6.28,2.8-6.68,6l13.12,0z M133.44,29.52l2.4,0c0.04,1.04,0.04,2.68,0.16,3.24l0.12,0c1.08-2.28,3.6-3.72,6.32-3.72c4.68,0,7.04,2.52,7.04,8.04l0,10.92l-2.4,0l0-10.8c0-4.08-1.52-6-4.64-6c-3.88,0-6.4,2.84-6.4,7.64l0,9.16l-2.4,0l0-13.48c0-0.4-0.2-4.68-0.2-5z M164.56,48.48c-5.64,0-9.72-4.12-9.72-9.72c0-5.64,4.12-9.72,9.72-9.72c3.04,0,6.04,1.36,7.4,3.72l0.08,0l0-15l2.4,0l0,30.24l-2.4,0l0-3.24l-0.08,0c-1.44,2.52-4.56,3.72-7.4,3.72z M157.24,38.76c0,4.32,2.96,7.56,7.32,7.56c4.24,0,7.72-3.32,7.72-7.56s-3.52-7.56-7.76-7.56s-7.28,3.24-7.28,7.56z  M199.88,19.68c9.64,0,15.24,5.72,15.24,14.36c0,5.68-3.44,13.96-15.08,13.96l-9,0l0-28.32l8.84,0z M199.32,45.6c7.88,0,13.16-4.16,13.16-11.56c0-7.92-5.28-11.96-13.28-11.96l-5.52,0l0,23.52l5.64,0z M228.56,29.04c4.88,0,8.68,3.4,8.68,8.88l0,1.44l-15.52,0c0.2,3.88,2.68,6.96,7,6.96c2.48,0,5-1.32,6.2-3.28l1.76,1.48c-1.88,2.8-4.72,3.96-8,3.96c-5.6,0-9.36-3.96-9.36-9.76c0-5.36,3.72-9.68,9.24-9.68z M234.84,37.2c-0.04-3.44-2.92-6-6.44-6c-3.64,0-6.28,2.8-6.68,6l13.12,0z M240,29.52l2.72,0l6.16,15.88l6-15.88l2.44,0l-7.28,18.48l-2.48,0z M269.32,29.04c4.88,0,8.68,3.4,8.68,8.88l0,1.44l-15.52,0c0.2,3.88,2.68,6.96,7,6.96c2.48,0,5-1.32,6.2-3.28l1.76,1.48c-1.88,2.8-4.72,3.96-8,3.96c-5.6,0-9.36-3.96-9.36-9.76c0-5.36,3.72-9.68,9.24-9.68z M275.6,37.2c-0.04-3.44-2.92-6-6.44-6c-3.64,0-6.28,2.8-6.68,6l13.12,0z M283.76,17.76l2.4,0l0,30.24l-2.4,0l0-30.24z M301.64,29.04c5.64,0,9.72,4.08,9.72,9.72c0,5.52-3.96,9.72-9.72,9.72c-5.68,0-9.72-4.08-9.72-9.72c0-5.6,4-9.72,9.72-9.72z M294.32,38.76c0,4.32,2.96,7.56,7.32,7.56c4.32,0,7.32-3.2,7.32-7.56s-3-7.56-7.36-7.56c-4.24,0-7.28,3.2-7.28,7.56z M316.2,57.12l0-27.6l2.4,0l0,3.24l0.08,0c1.4-2.44,4.48-3.72,7.4-3.72c5.68,0,9.72,4.08,9.72,9.72c0,5.52-3.92,9.72-9.72,9.72c-3.12,0-6.08-1.4-7.4-3.72l-0.08,0l0,12.36l-2.4,0z M326.08,46.32c4.44,0,7.32-3.32,7.32-7.56c0-4.36-2.96-7.56-7.36-7.56c-4.28,0-7.68,3.32-7.68,7.56s3.44,7.56,7.72,7.56z M349.36,29.04c4.88,0,8.68,3.4,8.68,8.88l0,1.44l-15.52,0c0.2,3.88,2.68,6.96,7,6.96c2.48,0,5-1.32,6.2-3.28l1.76,1.48c-1.88,2.8-4.72,3.96-8,3.96c-5.6,0-9.36-3.96-9.36-9.76c0-5.36,3.72-9.68,9.24-9.68z M355.64,37.2c-0.04-3.44-2.92-6-6.44-6c-3.64,0-6.28,2.8-6.68,6l13.12,0z M371.64,29.04c0.44,0,0.84,0.04,1.4,0.2l-0.28,2.36c-0.32-0.12-0.64-0.16-0.96-0.16c-3.88,0-6,2.64-6,6.48l0,10.08l-2.4,0l0-13.48c0-0.4-0.2-4.68-0.2-5l2.4,0c0.04,1.4,0.08,2.8,0.16,3.24c1.4-2.48,3.4-3.72,5.88-3.72z"/></g></svg>